<svg xmlns="http://www.w3.org/2000/svg" viewBox="0 0 120 120" fill="none" role="img" aria-label="Trvrse logomark">
  <defs>
    <linearGradient id="traverseGrad" x1="60" y1="108" x2="60" y2="12" gradientUnits="userSpaceOnUse">
      <stop offset="0%" stop-color="#2D7DD2"/>
      <stop offset="55%" stop-color="#1FA3C9"/>
      <stop offset="100%" stop-color="#06D6A0"/>
    </linearGradient>
    <linearGradient id="traverseSheen" x1="24" y1="20" x2="96" y2="100" gradientUnits="userSpaceOnUse">
      <stop offset="0%" stop-color="#FFFFFF" stop-opacity="0.35"/>
      <stop offset="45%" stop-color="#FFFFFF" stop-opacity="0.08"/>
      <stop offset="100%" stop-color="#FFFFFF" stop-opacity="0"/>
    </linearGradient>
  </defs>
  <!-- Bidirectional T: crossbar arrows + split stem -->
  <g fill="url(#traverseGrad)">
    <!-- Left arrow wing -->
    <path d="M8 34 L28 22 L28 30 L44 30 L44 38 L28 38 L28 46 Z"/>
    <!-- Right arrow wing -->
    <path d="M112 34 L92 22 L92 30 L76 30 L76 38 L92 38 L92 46 Z"/>
    <!-- Crossbar center -->
    <path d="M44 30 H76 V38 H44 Z"/>
    <!-- Stem left panel -->
    <path d="M48 38 H56 V96 H48 Z"/>
    <!-- Stem right panel (curved into outbound flow) -->
    <path d="M64 38 H72 V78 C72 88 68 94 60 96 C68 94 72 88 72 78 V38 Z"/>
  </g>
  <g fill="url(#traverseSheen)" opacity="0.9">
    <path d="M8 34 L28 22 L28 30 L44 30 L44 38 L28 38 L28 46 Z"/>
    <path d="M112 34 L92 22 L92 30 L76 30 L76 38 L92 38 L92 46 Z"/>
    <path d="M44 30 H76 V38 H44 Z"/>
    <path d="M48 38 H56 V96 H48 Z"/>
    <path d="M64 38 H72 V78 C72 88 68 94 60 96 C68 94 72 88 72 78 V38 Z"/>
  </g>
</svg>
