<?xml version="1.0" encoding="UTF-8"?>
<svg xmlns="http://www.w3.org/2000/svg" viewBox="0 0 472 463" width="472" height="463" fill="none" role="img" aria-label="Trvrse logo">
  <defs>
    <linearGradient id="trvrseGrad" x1="0" y1="0" x2="472" y2="0" gradientUnits="userSpaceOnUse">
      <stop offset="0%" stop-color="#00E5FF"/>
      <stop offset="45%" stop-color="#4F7BFF"/>
      <stop offset="100%" stop-color="#9333EA"/>
    </linearGradient>
  </defs>
  <path d="M 75.667 0.667 C 75.300 1.033, 75 26.458, 75 57.167 L 75 113 167.233 113 L 259.466 113 269.577 123.077 L 279.689 133.154 258.294 154.534 L 236.898 175.914 237.180 229.827 C 237.379 268.058, 237.140 284.141, 236.357 285.120 C 235.338 286.392, 233.435 295.526, 233.829 297.250 C 234.119 298.521, 232.198 298.078, 231.662 296.750 C 231.299 295.849, 231.136 295.832, 231.079 296.691 C 230.961 298.472, 233.017 299.383, 234.287 298.113 C 236.793 295.607, 238 296.948, 238 302.241 L 238 307.482 217.556 287.055 C 206.311 275.821, 197.383 266.150, 197.716 265.565 C 198.048 264.979, 197.944 264.842, 197.485 265.259 C 197.025 265.677, 195.602 265.036, 194.324 263.835 L 192 261.651 192 200.326 L 192 139 177.500 139 L 163 139 163 207.203 L 163 275.406 203.250 315.180 L 243.500 354.955 255.250 343.243 L 267 331.531 267 260.009 L 267 188.486 294.500 161 L 322 133.514 296.757 108.257 L 271.515 83 188.257 83 L 105 83 105 56.941 C 105 41.623, 105.373 31.113, 105.906 31.442 C 106.404 31.750, 106.559 33.014, 106.249 34.251 C 105.693 36.473, 105.712 36.477, 107.819 34.616 C 108.993 33.580, 109.720 32.356, 109.436 31.896 C 109.152 31.436, 150.675 30.934, 201.709 30.780 L 294.500 30.500 339.257 75 L 384.014 119.500 342.507 160.975 L 301 202.451 301 222.725 C 301 233.876, 301.337 242.927, 301.750 242.838 C 302.163 242.750, 330.172 214.848, 363.994 180.835 L 425.488 118.994 365.997 59.497 L 306.506 0 191.420 0 C 128.122 0, 76.033 0.300, 75.667 0.667 M 73.158 11 C 73.158 12.375, 73.385 12.938, 73.662 12.250 C 73.940 11.563, 73.940 10.438, 73.662 9.750 C 73.385 9.063, 73.158 9.625, 73.158 11 M 106.158 48 C 106.158 49.375, 106.385 49.938, 106.662 49.250 C 106.940 48.563, 106.940 47.438, 106.662 46.750 C 106.385 46.063, 106.158 46.625, 106.158 48 M 106.015 68.250 C 106.028 70.069, 106.216 70.213, 107 69 C 108.253 67.061, 108.253 66, 107 66 C 106.450 66, 106.007 67.013, 106.015 68.250 M 81.813 114.683 C 82.534 114.972, 83.397 114.936, 83.729 114.604 C 84.061 114.272, 83.471 114.036, 82.417 114.079 C 81.252 114.127, 81.015 114.364, 81.813 114.683 M 3.006 410.250 C 3.012 448.052, 3.234 449.598, 9.530 455.662 C 14.893 460.827, 20.638 462.273, 34 461.821 L 43.500 461.500 43.800 455.750 L 44.100 450 34.518 450 C 23.447 450, 18.499 448.442, 16.994 444.483 C 16.447 443.046, 16 435.149, 16 426.935 L 16 412 28 412 L 40 412 40 406 L 40 400 28 400 L 16 400 16 388.500 L 16 377 9.500 377 L 3 377 3.006 410.250 M 0.429 388.428 C 0.094 389.763, 0.296 391.675, 0.879 392.678 C 1.747 394.170, 1.945 393.731, 1.970 390.250 C 2.003 385.514, 1.353 384.744, 0.429 388.428 M 17 390.559 C 17 391.416, 17.450 391.840, 18 391.500 C 18.550 391.160, 19 390.459, 19 389.941 C 19 389.423, 18.550 389, 18 389 C 17.450 389, 17 389.702, 17 390.559 M 1.232 403 C 1.232 404.925, 1.438 405.712, 1.689 404.750 C 1.941 403.788, 1.941 402.212, 1.689 401.250 C 1.438 400.288, 1.232 401.075, 1.232 403 M 41.079 401.583 C 41.127 402.748, 41.364 402.985, 41.683 402.188 C 41.972 401.466, 41.936 400.603, 41.604 400.271 C 41.272 399.939, 41.036 400.529, 41.079 401.583 M 84.500 401.375 C 82.850 402.104, 80.100 403.879, 78.389 405.322 C 76.678 406.764, 74.918 407.619, 74.478 407.222 C 74.039 406.825, 73.952 406.980, 74.285 407.566 C 74.618 408.152, 74.260 410.402, 73.489 412.566 C 72.449 415.486, 72.076 422.377, 72.044 439.298 L 72 462.095 78.250 461.798 L 84.500 461.500 85 439.275 C 85.638 410.930, 84.415 412.705, 103.775 412 L 117.500 411.500 117.500 406 L 117.500 400.500 102.500 400.276 C 91.803 400.116, 86.639 400.431, 84.500 401.375 M 141.177 400.750 C 141.847 402.211, 153.361 424.739, 162.260 442 C 173.460 463.724, 172.139 462.153, 178.910 461.795 L 184.500 461.500 191.273 448.500 C 203.620 424.799, 216 400.689, 216 400.342 C 216 400.154, 212.889 400, 209.086 400 L 202.172 400 190.782 422.101 C 184.518 434.257, 178.974 444.211, 178.463 444.222 C 177.519 444.241, 174.296 438.326, 161.862 413.750 L 154.905 400 147.869 400 C 143.999 400, 140.988 400.337, 141.177 400.750 M 254.655 401.459 C 249.893 403.156, 246.453 406.296, 243.653 411.500 C 241.627 415.263, 241.500 416.862, 241.500 438.500 L 241.500 461.500 247.750 461.798 L 254 462.095 254.015 441.298 C 254.031 418.711, 254.683 415.231, 258.792 415.813 C 260.006 415.985, 261 415.647, 261 415.063 C 261 414.478, 260.438 413.968, 259.750 413.930 C 259.063 413.891, 259.400 413.473, 260.500 413 C 261.600 412.527, 268.012 412.109, 274.750 412.070 L 287 412 287 406 L 287 400 272.750 400.044 C 263.320 400.073, 257.199 400.552, 254.655 401.459 M 325 400.690 C 311.333 405.539, 308.367 424.557, 319.942 433.116 C 321.796 434.486, 322.577 435.643, 321.922 436.048 C 321.327 436.416, 330.213 436.806, 341.670 436.914 C 364.712 437.131, 367 437.666, 367 442.832 C 367 449.402, 366.737 449.469, 339.582 449.800 L 315 450.099 315 456.111 L 315 462.123 340.750 461.811 C 363.606 461.535, 366.928 461.287, 370.306 459.609 C 380.612 454.490, 383.374 440.051, 375.716 431.330 C 370.642 425.550, 368.255 425, 348.255 425 C 327.927 425, 326 424.437, 326 418.500 C 326 412.330, 327.408 412, 353.723 412 L 377 412 377 406 L 377 400 351.750 400.079 C 337.863 400.122, 325.825 400.397, 325 400.690 M 418.500 401.408 C 414.569 403.150, 410.641 406.905, 408.347 411.113 C 406.769 414.006, 406.500 416.832, 406.500 430.500 C 406.500 448.997, 407.460 452.164, 414.730 457.656 C 420.134 461.738, 423.926 462.190, 449.500 461.803 L 469.500 461.500 469.800 455.750 L 470.100 450 449.018 450 C 424.276 450, 421.766 449.421, 420.075 443.330 C 419.490 441.223, 419.009 438.938, 419.006 438.250 C 419.001 437.281, 424.964 437, 445.500 437 L 472 437 472.111 428.750 C 472.336 411.974, 469.840 406.201, 460.500 401.890 C 455.399 399.536, 423.549 399.170, 418.500 401.408 M 17 416 C 17 419.803, 18.037 419.801, 20.203 415.994 C 21.896 413.019, 21.891 413, 19.453 413 C 17.394 413, 17 413.482, 17 416 M 100.250 413.689 C 101.213 413.941, 102.787 413.941, 103.750 413.689 C 104.713 413.438, 103.925 413.232, 102 413.232 C 100.075 413.232, 99.287 413.438, 100.250 413.689 M 1.286 420.500 C 1.294 423.250, 1.488 424.256, 1.718 422.736 C 1.947 421.216, 1.941 418.966, 1.704 417.736 C 1.467 416.506, 1.279 417.750, 1.286 420.500 M 17.232 432 C 17.232 433.925, 17.438 434.712, 17.689 433.750 C 17.941 432.788, 17.941 431.212, 17.689 430.250 C 17.438 429.288, 17.232 430.075, 17.232 432 M 381.079 439.583 C 381.127 440.748, 381.364 440.985, 381.683 440.188 C 381.972 439.466, 381.936 438.603, 381.604 438.271 C 381.272 437.939, 381.036 438.529, 381.079 439.583 M 471.079 451.583 C 471.127 452.748, 471.364 452.985, 471.683 452.188 C 471.972 451.466, 471.936 450.603, 471.604 450.271 C 471.272 449.939, 471.036 450.529, 471.079 451.583" fill="url(#trvrseGrad)"/>
</svg>
